<svg preserveAspectRatio="xMidYMid meet" width="17.9948" height="17.9948" viewBox="0 0 17.9948 17.9948" fill="none" xmlns="http://www.w3.org/2000/svg">
<g id="Icon" clip-path="url(#clip0_0_57)">
<path id="Vector" d="M5.24849 12.2215C6.89801 12.2215 8.24763 10.8494 8.24763 9.18486C8.24763 8.31511 7.82025 7.49034 6.9655 6.79305C6.11074 6.09575 5.46593 5.06104 5.24849 3.97386C5.03105 5.06104 4.39374 6.10324 3.53148 6.79305C2.66923 7.48285 2.24935 8.32261 2.24935 9.18486C2.24935 10.8494 3.59896 12.2215 5.24849 12.2215Z" stroke="#000000" stroke-width="1.87446" stroke-linecap="round" stroke-linejoin="round"/>
<path id="Vector_2" d="M9.41729 4.94858C9.93296 4.12466 10.2985 3.21586 10.497 2.26435C10.8719 4.13881 11.9965 5.93829 13.4961 7.13795C14.9957 8.3376 15.7455 9.76219 15.7455 11.2618C15.7498 12.2982 15.4462 13.3125 14.8733 14.1762C14.3004 15.0399 13.484 15.7141 12.5275 16.1132C11.571 16.5124 10.5175 16.6185 9.50065 16.4182C8.48375 16.2179 7.54923 15.7202 6.81554 14.9882" stroke="#000000" stroke-width="1.87446" stroke-linecap="round" stroke-linejoin="round"/>
</g>
<defs>
<clipPath id="clip0_0_57">
<rect width="17.9948" height="17.9948" fill="white"/>
</clipPath>
</defs>
</svg>
